<?xml version="1.0" encoding="utf-8"?>
<!-- Generator: Adobe Illustrator 19.0.0, SVG Export Plug-In . SVG Version: 6.00 Build 0)  -->
<svg version="1.1" id="Layer_1" xmlns="http://www.w3.org/2000/svg" xmlns:xlink="http://www.w3.org/1999/xlink" x="0px" y="0px"
	 viewBox="-370 235.3 100 100" style="enable-background:new -370 235.3 100 100;" xml:space="preserve">
<g>
	<path d="M-270,306.9l-26.4-26.7v16.5h-2.9c-2-8.3-9.8-18.8-23.1-19.8c6.4-4,10.6-11.1,10.6-19.1c0-12.4-10.1-22.5-22.5-22.5
		s-22.5,10.1-22.5,22.5c0,8.1,4.3,15.2,10.7,19.1c-12.5,1-23.9,11.8-23.9,25.9v32.4h71.4v-17.8h2.2v16.5L-270,306.9z M-353.3,257.8
		c0-10.5,8.5-19,19-19c10.5,0,19,8.5,19,19s-8.5,19-19,19C-344.8,276.8-353.3,268.3-353.3,257.8z M-318.8,331.7h-31v-30.4h-3.9v30.4
		h-12.7v-28.8c0-1.6,0.2-3.2,0.5-4.8c0.1,0.3,0.4,0.6,0.8,0.6c0.5,0,0.9-0.4,0.9-0.9c0-0.5-0.4-0.9-0.9-0.9c-0.2,0-0.4,0.1-0.6,0.2
		c0.2-0.9,0.5-1.8,0.9-2.7c0.3-0.1,0.6-0.4,0.6-0.8c0-0.1,0-0.3-0.1-0.4c0.2-0.4,0.4-0.8,0.6-1.1c0.2,0.2,0.4,0.3,0.7,0.3
		c0.5,0,0.9-0.4,0.9-0.9c0-0.4-0.3-0.8-0.7-0.9c0.4-0.6,0.8-1.1,1.2-1.7c-0.1,0.1-0.1,0.3-0.1,0.5c0,0.5,0.4,0.9,0.9,0.9
		c0.5,0,0.9-0.4,0.9-0.9c0-0.5-0.4-0.9-0.9-0.9c-0.3,0-0.5,0.1-0.7,0.3c1.2-1.5,2.5-2.8,4-4c-0.1,0.1-0.1,0.3-0.1,0.4c0,0,0,0,0,0
		c0,0,0,0,0,0c0,0.5,0.4,0.9,0.9,0.9s0.9-0.4,0.9-0.9c0,0,0,0,0,0c0,0,0,0,0,0c0-0.5-0.4-0.9-0.9-0.9c-0.1,0-0.1,0-0.2,0
		c0.5-0.3,0.9-0.6,1.4-0.9c0.1,0.4,0.4,0.6,0.8,0.6c0.5,0,0.9-0.4,0.9-0.9c0-0.2-0.1-0.4-0.2-0.6c1.5-0.8,3-1.3,4.7-1.8
		c0,0.1,0,0.2,0,0.3c0,0.5,0.4,0.9,0.9,0.9s0.9-0.4,0.9-0.9c0-0.2-0.1-0.4-0.2-0.6c1.3-0.2,2.7-0.4,4.1-0.4h19.5
		c1.3,0,2.6,0.1,3.9,0.3c-0.2,0.2-0.3,0.4-0.3,0.6c0,0.5,0.4,0.9,0.9,0.9c0.5,0,0.9-0.4,0.9-0.9c0-0.1,0-0.2-0.1-0.3
		c1.7,0.4,3.3,1,4.8,1.7c-0.2,0.2-0.3,0.4-0.3,0.6c0,0.5,0.4,0.9,0.9,0.9c0.4,0,0.8-0.3,0.9-0.7c3,1.8,5.5,4.3,7.4,7.2c0,0,0,0,0,0
		c-0.5,0-0.9,0.4-0.9,0.9c0,0.5,0.4,0.9,0.9,0.9c0.3,0,0.6-0.2,0.8-0.5c0.2,0.4,0.4,0.8,0.6,1.1c-0.1,0.1-0.2,0.3-0.2,0.5
		c0,0.5,0.3,0.8,0.8,0.9c0.3,0.7,0.5,1.4,0.7,2.2h-30.4v20.7h0.7c-0.3,0.1-0.5,0.4-0.5,0.8c0,0.5,0.4,0.9,0.9,0.9
		c0.5,0,0.9-0.4,0.9-0.9c0-0.4-0.2-0.7-0.5-0.8h3.4c-0.3,0.1-0.5,0.4-0.5,0.8c0,0.5,0.4,0.9,0.9,0.9s0.9-0.4,0.9-0.9
		c0-0.4-0.2-0.7-0.5-0.8h3.4c-0.3,0.1-0.5,0.4-0.5,0.8c0,0.5,0.4,0.9,0.9,0.9c0.5,0,0.9-0.4,0.9-0.9c0-0.4-0.2-0.7-0.5-0.8h3.4
		c-0.3,0.1-0.5,0.4-0.5,0.8c0,0.5,0.4,0.9,0.9,0.9c0.5,0,0.9-0.4,0.9-0.9c0-0.4-0.2-0.7-0.5-0.8h0.9
		C-318.8,321.8-318.8,331.7-318.8,331.7z M-302.2,331.7h-12.7v-14.2h2.7c-0.3,0.1-0.5,0.4-0.5,0.8c0,0.5,0.4,0.9,0.9,0.9
		c0.5,0,0.9-0.4,0.9-0.9c0-0.4-0.2-0.7-0.5-0.8h3.4c-0.3,0.1-0.5,0.4-0.5,0.8c0,0.5,0.4,0.9,0.9,0.9c0.5,0,0.9-0.4,0.9-0.9
		c0-0.4-0.2-0.7-0.5-0.8h3.4c-0.3,0.1-0.5,0.4-0.5,0.8c0,0.5,0.4,0.9,0.9,0.9s0.9-0.4,0.9-0.9c0-0.4-0.2-0.7-0.5-0.8h1.1
		L-302.2,331.7L-302.2,331.7z M-329.4,313.5v-12.9h36.9v-10.9l17,17.2l-17,17.4v-10.8H-329.4z M-343.7,281.4c0,0.5-0.4,0.9-0.9,0.9
		c-0.5,0-0.9-0.4-0.9-0.9c0-0.5,0.4-0.9,0.9-0.9C-344.1,280.5-343.7,280.9-343.7,281.4z M-349.9,283.4c0,0.5-0.4,0.9-0.9,0.9
		c-0.5,0-0.9-0.4-0.9-0.9c0-0.5,0.4-0.9,0.9-0.9C-350.3,282.6-349.9,283-349.9,283.4z M-345.8,283.4c0,0.5-0.4,0.9-0.9,0.9
		c-0.5,0-0.9-0.4-0.9-0.9c0-0.5,0.4-0.9,0.9-0.9C-346.2,282.6-345.8,283-345.8,283.4z M-335.5,281.4c0,0.5-0.4,0.9-0.9,0.9
		s-0.9-0.4-0.9-0.9c0-0.5,0.4-0.9,0.9-0.9C-335.9,280.5-335.5,280.9-335.5,281.4z M-333.2,281.4c0-0.5,0.4-0.9,0.9-0.9
		c0.5,0,0.9,0.4,0.9,0.9c0,0.5-0.4,0.9-0.9,0.9C-332.8,282.3-333.2,281.9-333.2,281.4z M-339.6,281.4c0,0.5-0.4,0.9-0.9,0.9
		c-0.5,0-0.9-0.4-0.9-0.9c0-0.5,0.4-0.9,0.9-0.9C-340,280.5-339.6,280.9-339.6,281.4z M-341.7,283.4c0,0.5-0.4,0.9-0.9,0.9
		c-0.5,0-0.9-0.4-0.9-0.9c0-0.5,0.4-0.9,0.9-0.9C-342.1,282.6-341.7,283-341.7,283.4z M-337.6,283.4c0,0.5-0.4,0.9-0.9,0.9
		c-0.5,0-0.9-0.4-0.9-0.9c0-0.5,0.4-0.9,0.9-0.9C-338,282.6-337.6,283-337.6,283.4z M-333.5,283.4c0,0.5-0.4,0.9-0.9,0.9
		c-0.5,0-0.9-0.4-0.9-0.9c0-0.5,0.4-0.9,0.9-0.9C-333.9,282.6-333.5,283-333.5,283.4z M-325,281.4c0-0.5,0.4-0.9,0.9-0.9
		c0.5,0,0.9,0.4,0.9,0.9c0,0.5-0.4,0.9-0.9,0.9C-324.6,282.3-325,281.9-325,281.4z M-329.1,281.4c0-0.5,0.4-0.9,0.9-0.9
		s0.9,0.4,0.9,0.9c0,0.5-0.4,0.9-0.9,0.9S-329.1,281.9-329.1,281.4z M-331.1,283.4c0-0.5,0.4-0.9,0.9-0.9s0.9,0.4,0.9,0.9
		c0,0.5-0.4,0.9-0.9,0.9S-331.1,283.9-331.1,283.4z M-327,283.4c0-0.5,0.4-0.9,0.9-0.9c0.5,0,0.9,0.4,0.9,0.9c0,0.5-0.4,0.9-0.9,0.9
		C-326.7,284.3-327,283.9-327,283.4z M-323,283.4c0-0.5,0.4-0.9,0.9-0.9c0.5,0,0.9,0.4,0.9,0.9c0,0.5-0.4,0.9-0.9,0.9
		C-322.6,284.3-323,283.9-323,283.4z M-347.8,285.5c0,0.5-0.4,0.9-0.9,0.9c-0.5,0-0.9-0.4-0.9-0.9c0-0.5,0.4-0.9,0.9-0.9
		C-348.2,284.6-347.8,285-347.8,285.5z M-343.7,285.5c0,0.5-0.4,0.9-0.9,0.9c-0.5,0-0.9-0.4-0.9-0.9c0-0.5,0.4-0.9,0.9-0.9
		C-344.1,284.6-343.7,285-343.7,285.5z M-339.6,285.5c0,0.5-0.4,0.9-0.9,0.9c-0.5,0-0.9-0.4-0.9-0.9c0-0.5,0.4-0.9,0.9-0.9
		C-340,284.6-339.6,285-339.6,285.5z M-335.5,285.5c0,0.5-0.4,0.9-0.9,0.9s-0.9-0.4-0.9-0.9c0-0.5,0.4-0.9,0.9-0.9
		C-335.9,284.6-335.5,285-335.5,285.5z M-351.9,285.5c0,0.5-0.4,0.9-0.9,0.9c-0.5,0-0.9-0.4-0.9-0.9c0-0.5,0.4-0.9,0.9-0.9
		C-352.3,284.6-351.9,285-351.9,285.5z M-318.9,283.4c0-0.5,0.4-0.9,0.9-0.9c0.5,0,0.9,0.4,0.9,0.9c0,0.5-0.4,0.9-0.9,0.9
		C-318.5,284.3-318.9,283.9-318.9,283.4z M-356,289.6c0,0.5-0.4,0.9-0.9,0.9c-0.5,0-0.9-0.4-0.9-0.9s0.4-0.9,0.9-0.9
		C-356.4,288.7-356,289.1-356,289.6z M-358.1,287.5c0,0.5-0.4,0.9-0.9,0.9c-0.5,0-0.9-0.4-0.9-0.9s0.4-0.9,0.9-0.9
		C-358.5,286.7-358.1,287.1-358.1,287.5z M-358.1,291.6c0,0.5-0.4,0.9-0.9,0.9c-0.5,0-0.9-0.4-0.9-0.9s0.4-0.9,0.9-0.9
		C-358.5,290.8-358.1,291.2-358.1,291.6z M-347.8,289.6c0,0.5-0.4,0.9-0.9,0.9c-0.5,0-0.9-0.4-0.9-0.9s0.4-0.9,0.9-0.9
		C-348.2,288.7-347.8,289.1-347.8,289.6z M-343.7,289.6c0,0.5-0.4,0.9-0.9,0.9c-0.5,0-0.9-0.4-0.9-0.9s0.4-0.9,0.9-0.9
		C-344.1,288.7-343.7,289.1-343.7,289.6z M-354,287.5c0,0.5-0.4,0.9-0.9,0.9c-0.5,0-0.9-0.4-0.9-0.9s0.4-0.9,0.9-0.9
		C-354.4,286.7-354,287.1-354,287.5z M-349.9,287.5c0,0.5-0.4,0.9-0.9,0.9c-0.5,0-0.9-0.4-0.9-0.9s0.4-0.9,0.9-0.9
		C-350.3,286.7-349.9,287.1-349.9,287.5z M-354,291.6c0,0.5-0.4,0.9-0.9,0.9c-0.5,0-0.9-0.4-0.9-0.9s0.4-0.9,0.9-0.9
		C-354.4,290.8-354,291.2-354,291.6z M-349.9,291.6c0,0.5-0.4,0.9-0.9,0.9c-0.5,0-0.9-0.4-0.9-0.9s0.4-0.9,0.9-0.9
		C-350.3,290.8-349.9,291.2-349.9,291.6z M-345.8,287.5c0,0.5-0.4,0.9-0.9,0.9c-0.5,0-0.9-0.4-0.9-0.9s0.4-0.9,0.9-0.9
		C-346.2,286.7-345.8,287.1-345.8,287.5z M-345.8,291.6c0,0.5-0.4,0.9-0.9,0.9c-0.5,0-0.9-0.4-0.9-0.9s0.4-0.9,0.9-0.9
		C-346.2,290.8-345.8,291.2-345.8,291.6z M-333.2,285.5c0-0.5,0.4-0.9,0.9-0.9c0.5,0,0.9,0.4,0.9,0.9c0,0.5-0.4,0.9-0.9,0.9
		C-332.8,286.4-333.2,286-333.2,285.5z M-335.5,289.6c0,0.5-0.4,0.9-0.9,0.9s-0.9-0.4-0.9-0.9s0.4-0.9,0.9-0.9
		C-335.9,288.7-335.5,289.1-335.5,289.6z M-333.2,289.6c0-0.5,0.4-0.9,0.9-0.9c0.5,0,0.9,0.4,0.9,0.9s-0.4,0.9-0.9,0.9
		C-332.8,290.5-333.2,290.1-333.2,289.6z M-339.6,289.6c0,0.5-0.4,0.9-0.9,0.9c-0.5,0-0.9-0.4-0.9-0.9s0.4-0.9,0.9-0.9
		C-340,288.7-339.6,289.1-339.6,289.6z M-341.7,287.5c0,0.5-0.4,0.9-0.9,0.9c-0.5,0-0.9-0.4-0.9-0.9s0.4-0.9,0.9-0.9
		C-342.1,286.7-341.7,287.1-341.7,287.5z M-337.6,287.5c0,0.5-0.4,0.9-0.9,0.9c-0.5,0-0.9-0.4-0.9-0.9s0.4-0.9,0.9-0.9
		C-338,286.7-337.6,287.1-337.6,287.5z M-341.7,291.6c0,0.5-0.4,0.9-0.9,0.9c-0.5,0-0.9-0.4-0.9-0.9s0.4-0.9,0.9-0.9
		C-342.1,290.8-341.7,291.2-341.7,291.6z M-337.6,291.6c0,0.5-0.4,0.9-0.9,0.9c-0.5,0-0.9-0.4-0.9-0.9s0.4-0.9,0.9-0.9
		C-338,290.8-337.6,291.2-337.6,291.6z M-333.5,287.5c0,0.5-0.4,0.9-0.9,0.9c-0.5,0-0.9-0.4-0.9-0.9s0.4-0.9,0.9-0.9
		C-333.9,286.7-333.5,287.1-333.5,287.5z M-333.5,291.6c0,0.5-0.4,0.9-0.9,0.9c-0.5,0-0.9-0.4-0.9-0.9s0.4-0.9,0.9-0.9
		C-333.9,290.8-333.5,291.2-333.5,291.6z M-329.1,285.5c0-0.5,0.4-0.9,0.9-0.9s0.9,0.4,0.9,0.9c0,0.5-0.4,0.9-0.9,0.9
		S-329.1,286-329.1,285.5z M-325,285.5c0-0.5,0.4-0.9,0.9-0.9c0.5,0,0.9,0.4,0.9,0.9c0,0.5-0.4,0.9-0.9,0.9
		C-324.6,286.4-325,286-325,285.5z M-325,289.6c0-0.5,0.4-0.9,0.9-0.9c0.5,0,0.9,0.4,0.9,0.9s-0.4,0.9-0.9,0.9
		C-324.6,290.5-325,290.1-325,289.6z M-329.1,289.6c0-0.5,0.4-0.9,0.9-0.9s0.9,0.4,0.9,0.9s-0.4,0.9-0.9,0.9
		S-329.1,290.1-329.1,289.6z M-331.1,287.5c0-0.5,0.4-0.9,0.9-0.9s0.9,0.4,0.9,0.9s-0.4,0.9-0.9,0.9S-331.1,288-331.1,287.5z
		 M-327,287.5c0-0.5,0.4-0.9,0.9-0.9c0.5,0,0.9,0.4,0.9,0.9s-0.4,0.9-0.9,0.9C-326.7,288.4-327,288-327,287.5z M-331.1,291.6
		c0-0.5,0.4-0.9,0.9-0.9s0.9,0.4,0.9,0.9s-0.4,0.9-0.9,0.9S-331.1,292.1-331.1,291.6z M-327,291.6c0-0.5,0.4-0.9,0.9-0.9
		c0.5,0,0.9,0.4,0.9,0.9s-0.4,0.9-0.9,0.9C-326.7,292.5-327,292.1-327,291.6z M-323,287.5c0-0.5,0.4-0.9,0.9-0.9
		c0.5,0,0.9,0.4,0.9,0.9s-0.4,0.9-0.9,0.9C-322.6,288.4-323,288-323,287.5z M-323,291.6c0-0.5,0.4-0.9,0.9-0.9
		c0.5,0,0.9,0.4,0.9,0.9s-0.4,0.9-0.9,0.9C-322.6,292.5-323,292.1-323,291.6z M-360.1,293.7c0,0.5-0.4,0.9-0.9,0.9
		c-0.5,0-0.9-0.4-0.9-0.9c0-0.5,0.4-0.9,0.9-0.9C-360.5,292.8-360.1,293.2-360.1,293.7z M-356,293.7c0,0.5-0.4,0.9-0.9,0.9
		c-0.5,0-0.9-0.4-0.9-0.9c0-0.5,0.4-0.9,0.9-0.9C-356.4,292.8-356,293.2-356,293.7z M-362.2,295.7c0,0.5-0.4,0.9-0.9,0.9
		c-0.5,0-0.9-0.4-0.9-0.9c0-0.5,0.4-0.9,0.9-0.9C-362.5,294.9-362.2,295.2-362.2,295.7z M-358.1,295.7c0,0.5-0.4,0.9-0.9,0.9
		c-0.5,0-0.9-0.4-0.9-0.9c0-0.5,0.4-0.9,0.9-0.9C-358.5,294.9-358.1,295.2-358.1,295.7z M-347.8,293.7c0,0.5-0.4,0.9-0.9,0.9
		c-0.5,0-0.9-0.4-0.9-0.9c0-0.5,0.4-0.9,0.9-0.9C-348.2,292.8-347.8,293.2-347.8,293.7z M-343.7,293.7c0,0.5-0.4,0.9-0.9,0.9
		c-0.5,0-0.9-0.4-0.9-0.9c0-0.5,0.4-0.9,0.9-0.9C-344.1,292.8-343.7,293.2-343.7,293.7z M-354,295.7c0,0.5-0.4,0.9-0.9,0.9
		c-0.5,0-0.9-0.4-0.9-0.9c0-0.5,0.4-0.9,0.9-0.9C-354.4,294.9-354,295.2-354,295.7z M-349.9,295.7c0,0.5-0.4,0.9-0.9,0.9
		c-0.5,0-0.9-0.4-0.9-0.9c0-0.5,0.4-0.9,0.9-0.9C-350.3,294.9-349.9,295.2-349.9,295.7z M-345.8,295.7c0,0.5-0.4,0.9-0.9,0.9
		c-0.5,0-0.9-0.4-0.9-0.9c0-0.5,0.4-0.9,0.9-0.9C-346.2,294.9-345.8,295.2-345.8,295.7z M-335.5,293.7c0,0.5-0.4,0.9-0.9,0.9
		s-0.9-0.4-0.9-0.9c0-0.5,0.4-0.9,0.9-0.9C-335.9,292.8-335.5,293.2-335.5,293.7z M-333.2,293.7c0-0.5,0.4-0.9,0.9-0.9
		c0.5,0,0.9,0.4,0.9,0.9c0,0.5-0.4,0.9-0.9,0.9C-332.8,294.5-333.2,294.2-333.2,293.7z M-339.6,293.7c0,0.5-0.4,0.9-0.9,0.9
		c-0.5,0-0.9-0.4-0.9-0.9c0-0.5,0.4-0.9,0.9-0.9C-340,292.8-339.6,293.2-339.6,293.7z M-341.7,295.7c0,0.5-0.4,0.9-0.9,0.9
		c-0.5,0-0.9-0.4-0.9-0.9c0-0.5,0.4-0.9,0.9-0.9C-342.1,294.9-341.7,295.2-341.7,295.7z M-337.6,295.7c0,0.5-0.4,0.9-0.9,0.9
		c-0.5,0-0.9-0.4-0.9-0.9c0-0.5,0.4-0.9,0.9-0.9C-338,294.9-337.6,295.2-337.6,295.7z M-333.5,295.7c0,0.5-0.4,0.9-0.9,0.9
		c-0.5,0-0.9-0.4-0.9-0.9c0-0.5,0.4-0.9,0.9-0.9C-333.9,294.9-333.5,295.2-333.5,295.7z M-325,293.7c0-0.5,0.4-0.9,0.9-0.9
		c0.5,0,0.9,0.4,0.9,0.9c0,0.5-0.4,0.9-0.9,0.9C-324.6,294.5-325,294.2-325,293.7z M-329.1,293.7c0-0.5,0.4-0.9,0.9-0.9
		s0.9,0.4,0.9,0.9c0,0.5-0.4,0.9-0.9,0.9S-329.1,294.2-329.1,293.7z M-331.1,295.7c0-0.5,0.4-0.9,0.9-0.9s0.9,0.4,0.9,0.9
		c0,0.5-0.4,0.9-0.9,0.9S-331.1,296.2-331.1,295.7z M-327,295.7c0-0.5,0.4-0.9,0.9-0.9c0.5,0,0.9,0.4,0.9,0.9c0,0.5-0.4,0.9-0.9,0.9
		C-326.7,296.6-327,296.2-327,295.7z M-323,295.7c0-0.5,0.4-0.9,0.9-0.9c0.5,0,0.9,0.4,0.9,0.9c0,0.5-0.4,0.9-0.9,0.9
		C-322.6,296.6-323,296.2-323,295.7z M-360.1,297.8c0,0.5-0.4,0.9-0.9,0.9c-0.5,0-0.9-0.4-0.9-0.9c0-0.5,0.4-0.9,0.9-0.9
		C-360.5,296.9-360.1,297.3-360.1,297.8z M-356,297.8c0,0.5-0.4,0.9-0.9,0.9c-0.5,0-0.9-0.4-0.9-0.9c0-0.5,0.4-0.9,0.9-0.9
		C-356.4,296.9-356,297.3-356,297.8z M-347.8,297.8c0,0.5-0.4,0.9-0.9,0.9c-0.5,0-0.9-0.4-0.9-0.9c0-0.5,0.4-0.9,0.9-0.9
		C-348.2,296.9-347.8,297.3-347.8,297.8z M-343.7,297.8c0,0.5-0.4,0.9-0.9,0.9c-0.5,0-0.9-0.4-0.9-0.9c0-0.5,0.4-0.9,0.9-0.9
		C-344.1,296.9-343.7,297.3-343.7,297.8z M-339.6,297.8c0,0.5-0.4,0.9-0.9,0.9c-0.5,0-0.9-0.4-0.9-0.9c0-0.5,0.4-0.9,0.9-0.9
		C-340,296.9-339.6,297.3-339.6,297.8z M-335.5,297.8c0,0.5-0.4,0.9-0.9,0.9s-0.9-0.4-0.9-0.9c0-0.5,0.4-0.9,0.9-0.9
		C-335.9,296.9-335.5,297.3-335.5,297.8z M-360.1,310c0,0.5-0.4,0.9-0.9,0.9c-0.5,0-0.9-0.4-0.9-0.9c0-0.5,0.4-0.9,0.9-0.9
		C-360.5,309.2-360.1,309.6-360.1,310z M-356,310c0,0.5-0.4,0.9-0.9,0.9c-0.5,0-0.9-0.4-0.9-0.9c0-0.5,0.4-0.9,0.9-0.9
		C-356.4,309.2-356,309.6-356,310z M-360.1,314.1c0,0.5-0.4,0.9-0.9,0.9c-0.5,0-0.9-0.4-0.9-0.9c0-0.5,0.4-0.9,0.9-0.9
		C-360.5,313.3-360.1,313.7-360.1,314.1z M-356,314.1c0,0.5-0.4,0.9-0.9,0.9c-0.5,0-0.9-0.4-0.9-0.9c0-0.5,0.4-0.9,0.9-0.9
		C-356.4,313.3-356,313.7-356,314.1z M-362.2,312.1c0,0.5-0.4,0.9-0.9,0.9s-0.9-0.4-0.9-0.9c0-0.5,0.4-0.9,0.9-0.9
		S-362.2,311.6-362.2,312.1z M-362.2,316.2c0,0.5-0.4,0.9-0.9,0.9c-0.5,0-0.9-0.4-0.9-0.9c0-0.5,0.4-0.9,0.9-0.9
		C-362.5,315.3-362.2,315.7-362.2,316.2z M-358.1,312.1c0,0.5-0.4,0.9-0.9,0.9c-0.5,0-0.9-0.4-0.9-0.9c0-0.5,0.4-0.9,0.9-0.9
		C-358.5,311.2-358.1,311.6-358.1,312.1z M-358.1,316.2c0,0.5-0.4,0.9-0.9,0.9c-0.5,0-0.9-0.4-0.9-0.9c0-0.5,0.4-0.9,0.9-0.9
		C-358.5,315.3-358.1,315.7-358.1,316.2z M-347.8,310c0,0.5-0.4,0.9-0.9,0.9c-0.5,0-0.9-0.4-0.9-0.9c0-0.5,0.4-0.9,0.9-0.9
		C-348.2,309.2-347.8,309.6-347.8,310z M-343.7,310c0,0.5-0.4,0.9-0.9,0.9c-0.5,0-0.9-0.4-0.9-0.9c0-0.5,0.4-0.9,0.9-0.9
		C-344.1,309.2-343.7,309.6-343.7,310z M-347.8,314.1c0,0.5-0.4,0.9-0.9,0.9c-0.5,0-0.9-0.4-0.9-0.9c0-0.5,0.4-0.9,0.9-0.9
		C-348.2,313.3-347.8,313.7-347.8,314.1z M-343.7,314.1c0,0.5-0.4,0.9-0.9,0.9c-0.5,0-0.9-0.4-0.9-0.9c0-0.5,0.4-0.9,0.9-0.9
		C-344.1,313.3-343.7,313.7-343.7,314.1z M-354,312.1c0,0.5-0.4,0.9-0.9,0.9c-0.5,0-0.9-0.4-0.9-0.9c0-0.5,0.4-0.9,0.9-0.9
		C-354.4,311.2-354,311.6-354,312.1z M-354,316.2c0,0.5-0.4,0.9-0.9,0.9c-0.5,0-0.9-0.4-0.9-0.9c0-0.5,0.4-0.9,0.9-0.9
		C-354.4,315.3-354,315.7-354,316.2z M-345.8,312.1c0,0.5-0.4,0.9-0.9,0.9c-0.5,0-0.9-0.4-0.9-0.9c0-0.5,0.4-0.9,0.9-0.9
		C-346.2,311.2-345.8,311.6-345.8,312.1z M-345.8,316.2c0,0.5-0.4,0.9-0.9,0.9c-0.5,0-0.9-0.4-0.9-0.9c0-0.5,0.4-0.9,0.9-0.9
		C-346.2,315.3-345.8,315.7-345.8,316.2z M-339.6,310c0,0.5-0.4,0.9-0.9,0.9c-0.5,0-0.9-0.4-0.9-0.9c0-0.5,0.4-0.9,0.9-0.9
		C-340,309.2-339.6,309.6-339.6,310z M-335.5,310c0,0.5-0.4,0.9-0.9,0.9s-0.9-0.4-0.9-0.9c0-0.5,0.4-0.9,0.9-0.9
		C-335.9,309.2-335.5,309.6-335.5,310z M-335.5,314.1c0,0.5-0.4,0.9-0.9,0.9s-0.9-0.4-0.9-0.9c0-0.5,0.4-0.9,0.9-0.9
		C-335.9,313.3-335.5,313.7-335.5,314.1z M-339.6,314.1c0,0.5-0.4,0.9-0.9,0.9c-0.5,0-0.9-0.4-0.9-0.9c0-0.5,0.4-0.9,0.9-0.9
		C-340,313.3-339.6,313.7-339.6,314.1z M-341.7,312.1c0,0.5-0.4,0.9-0.9,0.9c-0.5,0-0.9-0.4-0.9-0.9c0-0.5,0.4-0.9,0.9-0.9
		C-342.1,311.2-341.7,311.6-341.7,312.1z M-337.6,312.1c0,0.5-0.4,0.9-0.9,0.9c-0.5,0-0.9-0.4-0.9-0.9c0-0.5,0.4-0.9,0.9-0.9
		C-338,311.2-337.6,311.6-337.6,312.1z M-341.7,316.2c0,0.5-0.4,0.9-0.9,0.9c-0.5,0-0.9-0.4-0.9-0.9c0-0.5,0.4-0.9,0.9-0.9
		C-342.1,315.3-341.7,315.7-341.7,316.2z M-337.6,316.2c0,0.5-0.4,0.9-0.9,0.9c-0.5,0-0.9-0.4-0.9-0.9c0-0.5,0.4-0.9,0.9-0.9
		C-338,315.3-337.6,315.7-337.6,316.2z M-333.5,312.1c0,0.5-0.4,0.9-0.9,0.9c-0.5,0-0.9-0.4-0.9-0.9c0-0.5,0.4-0.9,0.9-0.9
		C-333.9,311.2-333.5,311.6-333.5,312.1z M-333.5,316.2c0,0.5-0.4,0.9-0.9,0.9c-0.5,0-0.9-0.4-0.9-0.9c0-0.5,0.4-0.9,0.9-0.9
		C-333.9,315.3-333.5,315.7-333.5,316.2z M-360.1,318.2c0,0.5-0.4,0.9-0.9,0.9c-0.5,0-0.9-0.4-0.9-0.9c0-0.5,0.4-0.9,0.9-0.9
		C-360.5,317.4-360.1,317.8-360.1,318.2z M-356,318.2c0,0.5-0.4,0.9-0.9,0.9c-0.5,0-0.9-0.4-0.9-0.9c0-0.5,0.4-0.9,0.9-0.9
		C-356.4,317.4-356,317.8-356,318.2z M-362.2,320.3c0,0.5-0.4,0.9-0.9,0.9c-0.5,0-0.9-0.4-0.9-0.9c0-0.5,0.4-0.9,0.9-0.9
		C-362.5,319.4-362.2,319.8-362.2,320.3z M-358.1,320.3c0,0.5-0.4,0.9-0.9,0.9c-0.5,0-0.9-0.4-0.9-0.9c0-0.5,0.4-0.9,0.9-0.9
		C-358.5,319.4-358.1,319.8-358.1,320.3z M-347.8,318.2c0,0.5-0.4,0.9-0.9,0.9c-0.5,0-0.9-0.4-0.9-0.9c0-0.5,0.4-0.9,0.9-0.9
		C-348.2,317.4-347.8,317.8-347.8,318.2z M-343.7,318.2c0,0.5-0.4,0.9-0.9,0.9c-0.5,0-0.9-0.4-0.9-0.9c0-0.5,0.4-0.9,0.9-0.9
		C-344.1,317.4-343.7,317.8-343.7,318.2z M-354,320.3c0,0.5-0.4,0.9-0.9,0.9c-0.5,0-0.9-0.4-0.9-0.9c0-0.5,0.4-0.9,0.9-0.9
		C-354.4,319.4-354,319.8-354,320.3z M-345.8,320.3c0,0.5-0.4,0.9-0.9,0.9c-0.5,0-0.9-0.4-0.9-0.9c0-0.5,0.4-0.9,0.9-0.9
		C-346.2,319.4-345.8,319.8-345.8,320.3z M-335.5,318.2c0,0.5-0.4,0.9-0.9,0.9s-0.9-0.4-0.9-0.9c0-0.5,0.4-0.9,0.9-0.9
		C-335.9,317.4-335.5,317.8-335.5,318.2z M-339.6,318.2c0,0.5-0.4,0.9-0.9,0.9c-0.5,0-0.9-0.4-0.9-0.9c0-0.5,0.4-0.9,0.9-0.9
		C-340,317.4-339.6,317.8-339.6,318.2z M-341.7,320.3c0,0.5-0.4,0.9-0.9,0.9c-0.5,0-0.9-0.4-0.9-0.9c0-0.5,0.4-0.9,0.9-0.9
		C-342.1,319.4-341.7,319.8-341.7,320.3z M-337.6,320.3c0,0.5-0.4,0.9-0.9,0.9c-0.5,0-0.9-0.4-0.9-0.9c0-0.5,0.4-0.9,0.9-0.9
		C-338,319.4-337.6,319.8-337.6,320.3z M-333.5,320.3c0,0.5-0.4,0.9-0.9,0.9c-0.5,0-0.9-0.4-0.9-0.9c0-0.5,0.4-0.9,0.9-0.9
		C-333.9,319.4-333.5,319.8-333.5,320.3z M-329.4,320.3c0,0.5-0.4,0.9-0.9,0.9c-0.5,0-0.9-0.4-0.9-0.9c0-0.5,0.4-0.9,0.9-0.9
		C-329.8,319.4-329.4,319.8-329.4,320.3z M-325.3,320.3c0,0.5-0.4,0.9-0.9,0.9s-0.9-0.4-0.9-0.9c0-0.5,0.4-0.9,0.9-0.9
		S-325.3,319.8-325.3,320.3z M-321.2,320.3c0,0.5-0.4,0.9-0.9,0.9c-0.5,0-0.9-0.4-0.9-0.9c0-0.5,0.4-0.9,0.9-0.9
		C-321.6,319.4-321.2,319.8-321.2,320.3z M-360.1,322.3c0,0.5-0.4,0.9-0.9,0.9c-0.5,0-0.9-0.4-0.9-0.9c0-0.5,0.4-0.9,0.9-0.9
		C-360.5,321.5-360.1,321.8-360.1,322.3z M-356,322.3c0,0.5-0.4,0.9-0.9,0.9c-0.5,0-0.9-0.4-0.9-0.9c0-0.5,0.4-0.9,0.9-0.9
		C-356.4,321.5-356,321.8-356,322.3z M-347.8,322.3c0,0.5-0.4,0.9-0.9,0.9c-0.5,0-0.9-0.4-0.9-0.9c0-0.5,0.4-0.9,0.9-0.9
		C-348.2,321.5-347.8,321.8-347.8,322.3z M-343.7,322.3c0,0.5-0.4,0.9-0.9,0.9c-0.5,0-0.9-0.4-0.9-0.9c0-0.5,0.4-0.9,0.9-0.9
		C-344.1,321.5-343.7,321.8-343.7,322.3z M-339.6,322.3c0,0.5-0.4,0.9-0.9,0.9c-0.5,0-0.9-0.4-0.9-0.9c0-0.5,0.4-0.9,0.9-0.9
		C-340,321.5-339.6,321.8-339.6,322.3z M-335.5,322.3c0,0.5-0.4,0.9-0.9,0.9s-0.9-0.4-0.9-0.9c0-0.5,0.4-0.9,0.9-0.9
		C-335.9,321.5-335.5,321.8-335.5,322.3z M-331.5,322.3c0,0.5-0.4,0.9-0.9,0.9s-0.9-0.4-0.9-0.9c0-0.5,0.4-0.9,0.9-0.9
		S-331.5,321.8-331.5,322.3z M-327.4,322.3c0,0.5-0.4,0.9-0.9,0.9c-0.5,0-0.9-0.4-0.9-0.9c0-0.5,0.4-0.9,0.9-0.9
		C-327.7,321.5-327.4,321.8-327.4,322.3z M-323.3,322.3c0,0.5-0.4,0.9-0.9,0.9c-0.5,0-0.9-0.4-0.9-0.9c0-0.5,0.4-0.9,0.9-0.9
		C-323.7,321.5-323.3,321.8-323.3,322.3z M-360.1,326.4c0,0.5-0.4,0.9-0.9,0.9c-0.5,0-0.9-0.4-0.9-0.9c0-0.5,0.4-0.9,0.9-0.9
		C-360.5,325.6-360.1,326-360.1,326.4z M-356,326.4c0,0.5-0.4,0.9-0.9,0.9c-0.5,0-0.9-0.4-0.9-0.9c0-0.5,0.4-0.9,0.9-0.9
		C-356.4,325.6-356,326-356,326.4z M-362.2,324.4c0,0.5-0.4,0.9-0.9,0.9s-0.9-0.4-0.9-0.9c0-0.5,0.4-0.9,0.9-0.9
		S-362.2,323.9-362.2,324.4z M-362.2,328.5c0,0.5-0.4,0.9-0.9,0.9c-0.5,0-0.9-0.4-0.9-0.9c0-0.5,0.4-0.9,0.9-0.9
		C-362.5,327.6-362.2,328-362.2,328.5z M-358.1,324.4c0,0.5-0.4,0.9-0.9,0.9c-0.5,0-0.9-0.4-0.9-0.9c0-0.5,0.4-0.9,0.9-0.9
		C-358.5,323.5-358.1,323.9-358.1,324.4z M-358.1,328.5c0,0.5-0.4,0.9-0.9,0.9c-0.5,0-0.9-0.4-0.9-0.9c0-0.5,0.4-0.9,0.9-0.9
		C-358.5,327.6-358.1,328-358.1,328.5z M-347.8,326.4c0,0.5-0.4,0.9-0.9,0.9c-0.5,0-0.9-0.4-0.9-0.9c0-0.5,0.4-0.9,0.9-0.9
		C-348.2,325.6-347.8,326-347.8,326.4z M-343.7,326.4c0,0.5-0.4,0.9-0.9,0.9c-0.5,0-0.9-0.4-0.9-0.9c0-0.5,0.4-0.9,0.9-0.9
		C-344.1,325.6-343.7,326-343.7,326.4z M-354,324.4c0,0.5-0.4,0.9-0.9,0.9c-0.5,0-0.9-0.4-0.9-0.9c0-0.5,0.4-0.9,0.9-0.9
		C-354.4,323.5-354,323.9-354,324.4z M-354,328.5c0,0.5-0.4,0.9-0.9,0.9c-0.5,0-0.9-0.4-0.9-0.9c0-0.5,0.4-0.9,0.9-0.9
		C-354.4,327.6-354,328-354,328.5z M-345.8,324.4c0,0.5-0.4,0.9-0.9,0.9c-0.5,0-0.9-0.4-0.9-0.9c0-0.5,0.4-0.9,0.9-0.9
		C-346.2,323.5-345.8,323.9-345.8,324.4z M-345.8,328.5c0,0.5-0.4,0.9-0.9,0.9c-0.5,0-0.9-0.4-0.9-0.9c0-0.5,0.4-0.9,0.9-0.9
		C-346.2,327.6-345.8,328-345.8,328.5z M-335.5,326.4c0,0.5-0.4,0.9-0.9,0.9s-0.9-0.4-0.9-0.9c0-0.5,0.4-0.9,0.9-0.9
		C-335.9,325.6-335.5,326-335.5,326.4z M-331.5,326.4c0,0.5-0.4,0.9-0.9,0.9s-0.9-0.4-0.9-0.9c0-0.5,0.4-0.9,0.9-0.9
		S-331.5,326-331.5,326.4z M-339.6,326.4c0,0.5-0.4,0.9-0.9,0.9c-0.5,0-0.9-0.4-0.9-0.9c0-0.5,0.4-0.9,0.9-0.9
		C-340,325.6-339.6,326-339.6,326.4z M-341.7,324.4c0,0.5-0.4,0.9-0.9,0.9c-0.5,0-0.9-0.4-0.9-0.9c0-0.5,0.4-0.9,0.9-0.9
		C-342.1,323.5-341.7,323.9-341.7,324.4z M-337.6,324.4c0,0.5-0.4,0.9-0.9,0.9c-0.5,0-0.9-0.4-0.9-0.9c0-0.5,0.4-0.9,0.9-0.9
		C-338,323.5-337.6,323.9-337.6,324.4z M-341.7,328.5c0,0.5-0.4,0.9-0.9,0.9c-0.5,0-0.9-0.4-0.9-0.9c0-0.5,0.4-0.9,0.9-0.9
		C-342.1,327.6-341.7,328-341.7,328.5z M-337.6,328.5c0,0.5-0.4,0.9-0.9,0.9c-0.5,0-0.9-0.4-0.9-0.9c0-0.5,0.4-0.9,0.9-0.9
		C-338,327.6-337.6,328-337.6,328.5z M-333.5,324.4c0,0.5-0.4,0.9-0.9,0.9c-0.5,0-0.9-0.4-0.9-0.9c0-0.5,0.4-0.9,0.9-0.9
		C-333.9,323.5-333.5,323.9-333.5,324.4z M-333.5,328.5c0,0.5-0.4,0.9-0.9,0.9c-0.5,0-0.9-0.4-0.9-0.9c0-0.5,0.4-0.9,0.9-0.9
		C-333.9,327.6-333.5,328-333.5,328.5z M-323.3,326.4c0,0.5-0.4,0.9-0.9,0.9c-0.5,0-0.9-0.4-0.9-0.9c0-0.5,0.4-0.9,0.9-0.9
		C-323.7,325.6-323.3,326-323.3,326.4z M-327.4,326.4c0,0.5-0.4,0.9-0.9,0.9c-0.5,0-0.9-0.4-0.9-0.9c0-0.5,0.4-0.9,0.9-0.9
		C-327.7,325.6-327.4,326-327.4,326.4z M-329.4,324.4c0,0.5-0.4,0.9-0.9,0.9c-0.5,0-0.9-0.4-0.9-0.9c0-0.5,0.4-0.9,0.9-0.9
		C-329.8,323.5-329.4,323.9-329.4,324.4z M-325.3,324.4c0,0.5-0.4,0.9-0.9,0.9s-0.9-0.4-0.9-0.9c0-0.5,0.4-0.9,0.9-0.9
		S-325.3,323.9-325.3,324.4z M-329.4,328.5c0,0.5-0.4,0.9-0.9,0.9c-0.5,0-0.9-0.4-0.9-0.9c0-0.5,0.4-0.9,0.9-0.9
		C-329.8,327.6-329.4,328-329.4,328.5z M-325.3,328.5c0,0.5-0.4,0.9-0.9,0.9s-0.9-0.4-0.9-0.9c0-0.5,0.4-0.9,0.9-0.9
		S-325.3,328-325.3,328.5z M-321.2,324.4c0,0.5-0.4,0.9-0.9,0.9c-0.5,0-0.9-0.4-0.9-0.9c0-0.5,0.4-0.9,0.9-0.9
		C-321.6,323.5-321.2,323.9-321.2,324.4z M-321.2,328.5c0,0.5-0.4,0.9-0.9,0.9c-0.5,0-0.9-0.4-0.9-0.9c0-0.5,0.4-0.9,0.9-0.9
		C-321.6,327.6-321.2,328-321.2,328.5z M-360.1,330.5c0,0.5-0.4,0.9-0.9,0.9c-0.5,0-0.9-0.4-0.9-0.9c0-0.5,0.4-0.9,0.9-0.9
		C-360.5,329.7-360.1,330-360.1,330.5z M-356,330.5c0,0.5-0.4,0.9-0.9,0.9c-0.5,0-0.9-0.4-0.9-0.9c0-0.5,0.4-0.9,0.9-0.9
		C-356.4,329.7-356,330-356,330.5z M-347.8,330.5c0,0.5-0.4,0.9-0.9,0.9c-0.5,0-0.9-0.4-0.9-0.9c0-0.5,0.4-0.9,0.9-0.9
		C-348.2,329.7-347.8,330-347.8,330.5z M-343.7,330.5c0,0.5-0.4,0.9-0.9,0.9c-0.5,0-0.9-0.4-0.9-0.9c0-0.5,0.4-0.9,0.9-0.9
		C-344.1,329.7-343.7,330-343.7,330.5z M-335.5,330.5c0,0.5-0.4,0.9-0.9,0.9s-0.9-0.4-0.9-0.9c0-0.5,0.4-0.9,0.9-0.9
		C-335.9,329.7-335.5,330-335.5,330.5z M-331.5,330.5c0,0.5-0.4,0.9-0.9,0.9s-0.9-0.4-0.9-0.9c0-0.5,0.4-0.9,0.9-0.9
		S-331.5,330-331.5,330.5z M-339.6,330.5c0,0.5-0.4,0.9-0.9,0.9c-0.5,0-0.9-0.4-0.9-0.9c0-0.5,0.4-0.9,0.9-0.9
		C-340,329.7-339.6,330-339.6,330.5z M-323.3,330.5c0,0.5-0.4,0.9-0.9,0.9c-0.5,0-0.9-0.4-0.9-0.9c0-0.5,0.4-0.9,0.9-0.9
		C-323.7,329.7-323.3,330-323.3,330.5z M-327.4,330.5c0,0.5-0.4,0.9-0.9,0.9c-0.5,0-0.9-0.4-0.9-0.9c0-0.5,0.4-0.9,0.9-0.9
		C-327.7,329.7-327.4,330-327.4,330.5z M-360.1,301.9c0,0.5-0.4,0.9-0.9,0.9c-0.5,0-0.9-0.4-0.9-0.9c0-0.5,0.4-0.9,0.9-0.9
		C-360.5,301-360.1,301.4-360.1,301.9z M-356,301.9c0,0.5-0.4,0.9-0.9,0.9c-0.5,0-0.9-0.4-0.9-0.9c0-0.5,0.4-0.9,0.9-0.9
		C-356.4,301-356,301.4-356,301.9z M-362.2,299.8c0,0.5-0.4,0.9-0.9,0.9s-0.9-0.4-0.9-0.9c0-0.5,0.4-0.9,0.9-0.9
		S-362.2,299.3-362.2,299.8z M-362.2,303.9c0,0.5-0.4,0.9-0.9,0.9c-0.5,0-0.9-0.4-0.9-0.9c0-0.5,0.4-0.9,0.9-0.9
		C-362.5,303.1-362.2,303.4-362.2,303.9z M-358.1,299.8c0,0.5-0.4,0.9-0.9,0.9c-0.5,0-0.9-0.4-0.9-0.9c0-0.5,0.4-0.9,0.9-0.9
		C-358.5,299-358.1,299.3-358.1,299.8z M-358.1,303.9c0,0.5-0.4,0.9-0.9,0.9c-0.5,0-0.9-0.4-0.9-0.9c0-0.5,0.4-0.9,0.9-0.9
		C-358.5,303.1-358.1,303.4-358.1,303.9z M-347.8,301.9c0,0.5-0.4,0.9-0.9,0.9c-0.5,0-0.9-0.4-0.9-0.9c0-0.5,0.4-0.9,0.9-0.9
		C-348.2,301-347.8,301.4-347.8,301.9z M-343.7,301.9c0,0.5-0.4,0.9-0.9,0.9c-0.5,0-0.9-0.4-0.9-0.9c0-0.5,0.4-0.9,0.9-0.9
		C-344.1,301-343.7,301.4-343.7,301.9z M-354,299.8c0,0.5-0.4,0.9-0.9,0.9c-0.5,0-0.9-0.4-0.9-0.9c0-0.5,0.4-0.9,0.9-0.9
		C-354.4,299-354,299.3-354,299.8z M-349.9,299.8c0,0.5-0.4,0.9-0.9,0.9c-0.5,0-0.9-0.4-0.9-0.9c0-0.5,0.4-0.9,0.9-0.9
		C-350.3,299-349.9,299.3-349.9,299.8z M-354,303.9c0,0.5-0.4,0.9-0.9,0.9c-0.5,0-0.9-0.4-0.9-0.9c0-0.5,0.4-0.9,0.9-0.9
		C-354.4,303.1-354,303.4-354,303.9z M-345.8,299.8c0,0.5-0.4,0.9-0.9,0.9c-0.5,0-0.9-0.4-0.9-0.9c0-0.5,0.4-0.9,0.9-0.9
		C-346.2,299-345.8,299.3-345.8,299.8z M-345.8,303.9c0,0.5-0.4,0.9-0.9,0.9c-0.5,0-0.9-0.4-0.9-0.9c0-0.5,0.4-0.9,0.9-0.9
		C-346.2,303.1-345.8,303.4-345.8,303.9z M-335.5,301.9c0,0.5-0.4,0.9-0.9,0.9s-0.9-0.4-0.9-0.9c0-0.5,0.4-0.9,0.9-0.9
		C-335.9,301-335.5,301.4-335.5,301.9z M-339.6,301.9c0,0.5-0.4,0.9-0.9,0.9c-0.5,0-0.9-0.4-0.9-0.9c0-0.5,0.4-0.9,0.9-0.9
		C-340,301-339.6,301.4-339.6,301.9z M-341.7,299.8c0,0.5-0.4,0.9-0.9,0.9c-0.5,0-0.9-0.4-0.9-0.9c0-0.5,0.4-0.9,0.9-0.9
		C-342.1,299-341.7,299.3-341.7,299.8z M-337.6,299.8c0,0.5-0.4,0.9-0.9,0.9c-0.5,0-0.9-0.4-0.9-0.9c0-0.5,0.4-0.9,0.9-0.9
		C-338,299-337.6,299.3-337.6,299.8z M-341.7,303.9c0,0.5-0.4,0.9-0.9,0.9c-0.5,0-0.9-0.4-0.9-0.9c0-0.5,0.4-0.9,0.9-0.9
		C-342.1,303.1-341.7,303.4-341.7,303.9z M-337.6,303.9c0,0.5-0.4,0.9-0.9,0.9c-0.5,0-0.9-0.4-0.9-0.9c0-0.5,0.4-0.9,0.9-0.9
		C-338,303.1-337.6,303.4-337.6,303.9z M-333.5,299.8c0,0.5-0.4,0.9-0.9,0.9c-0.5,0-0.9-0.4-0.9-0.9c0-0.5,0.4-0.9,0.9-0.9
		C-333.9,299-333.5,299.3-333.5,299.8z M-333.5,303.9c0,0.5-0.4,0.9-0.9,0.9c-0.5,0-0.9-0.4-0.9-0.9c0-0.5,0.4-0.9,0.9-0.9
		C-333.9,303.1-333.5,303.4-333.5,303.9z M-360.1,306c0,0.5-0.4,0.9-0.9,0.9c-0.5,0-0.9-0.4-0.9-0.9c0-0.5,0.4-0.9,0.9-0.9
		C-360.5,305.1-360.1,305.5-360.1,306z M-364.2,310c0,0.5-0.4,0.9-0.9,0.9c-0.5,0-0.9-0.4-0.9-0.9c0-0.5,0.4-0.9,0.9-0.9
		C-364.6,309.2-364.2,309.6-364.2,310z M-364.2,314.1c0,0.5-0.4,0.9-0.9,0.9c-0.5,0-0.9-0.4-0.9-0.9c0-0.5,0.4-0.9,0.9-0.9
		C-364.6,313.3-364.2,313.7-364.2,314.1z M-364.2,318.2c0,0.5-0.4,0.9-0.9,0.9c-0.5,0-0.9-0.4-0.9-0.9c0-0.5,0.4-0.9,0.9-0.9
		C-364.6,317.4-364.2,317.8-364.2,318.2z M-364.2,322.3c0,0.5-0.4,0.9-0.9,0.9c-0.5,0-0.9-0.4-0.9-0.9c0-0.5,0.4-0.9,0.9-0.9
		C-364.6,321.5-364.2,321.8-364.2,322.3z M-364.2,326.4c0,0.5-0.4,0.9-0.9,0.9c-0.5,0-0.9-0.4-0.9-0.9c0-0.5,0.4-0.9,0.9-0.9
		C-364.6,325.6-364.2,326-364.2,326.4z M-364.2,330.5c0,0.5-0.4,0.9-0.9,0.9c-0.5,0-0.9-0.4-0.9-0.9c0-0.5,0.4-0.9,0.9-0.9
		C-364.6,329.7-364.2,330-364.2,330.5z M-364.2,301.9c0,0.5-0.4,0.9-0.9,0.9c-0.5,0-0.9-0.4-0.9-0.9c0-0.5,0.4-0.9,0.9-0.9
		C-364.6,301-364.2,301.4-364.2,301.9z M-364.2,306c0,0.5-0.4,0.9-0.9,0.9c-0.5,0-0.9-0.4-0.9-0.9c0-0.5,0.4-0.9,0.9-0.9
		C-364.6,305.1-364.2,305.5-364.2,306z M-356,306c0,0.5-0.4,0.9-0.9,0.9c-0.5,0-0.9-0.4-0.9-0.9c0-0.5,0.4-0.9,0.9-0.9
		C-356.4,305.1-356,305.5-356,306z M-362.2,308c0,0.5-0.4,0.9-0.9,0.9c-0.5,0-0.9-0.4-0.9-0.9c0-0.5,0.4-0.9,0.9-0.9
		C-362.5,307.1-362.2,307.5-362.2,308z M-358.1,308c0,0.5-0.4,0.9-0.9,0.9c-0.5,0-0.9-0.4-0.9-0.9c0-0.5,0.4-0.9,0.9-0.9
		C-358.5,307.1-358.1,307.5-358.1,308z M-347.8,306c0,0.5-0.4,0.9-0.9,0.9c-0.5,0-0.9-0.4-0.9-0.9c0-0.5,0.4-0.9,0.9-0.9
		C-348.2,305.1-347.8,305.5-347.8,306z M-343.7,306c0,0.5-0.4,0.9-0.9,0.9c-0.5,0-0.9-0.4-0.9-0.9c0-0.5,0.4-0.9,0.9-0.9
		C-344.1,305.1-343.7,305.5-343.7,306z M-354,308c0,0.5-0.4,0.9-0.9,0.9c-0.5,0-0.9-0.4-0.9-0.9c0-0.5,0.4-0.9,0.9-0.9
		C-354.4,307.1-354,307.5-354,308z M-345.8,308c0,0.5-0.4,0.9-0.9,0.9c-0.5,0-0.9-0.4-0.9-0.9c0-0.5,0.4-0.9,0.9-0.9
		C-346.2,307.1-345.8,307.5-345.8,308z M-335.5,306c0,0.5-0.4,0.9-0.9,0.9s-0.9-0.4-0.9-0.9c0-0.5,0.4-0.9,0.9-0.9
		C-335.9,305.1-335.5,305.5-335.5,306z M-339.6,306c0,0.5-0.4,0.9-0.9,0.9c-0.5,0-0.9-0.4-0.9-0.9c0-0.5,0.4-0.9,0.9-0.9
		C-340,305.1-339.6,305.5-339.6,306z M-341.7,308c0,0.5-0.4,0.9-0.9,0.9c-0.5,0-0.9-0.4-0.9-0.9c0-0.5,0.4-0.9,0.9-0.9
		C-342.1,307.1-341.7,307.5-341.7,308z M-337.6,308c0,0.5-0.4,0.9-0.9,0.9c-0.5,0-0.9-0.4-0.9-0.9c0-0.5,0.4-0.9,0.9-0.9
		C-338,307.1-337.6,307.5-337.6,308z M-333.5,308c0,0.5-0.4,0.9-0.9,0.9c-0.5,0-0.9-0.4-0.9-0.9c0-0.5,0.4-0.9,0.9-0.9
		C-333.9,307.1-333.5,307.5-333.5,308z M-351.9,289.6c0,0.5-0.4,0.9-0.9,0.9c-0.5,0-0.9-0.4-0.9-0.9s0.4-0.9,0.9-0.9
		C-352.3,288.7-351.9,289.1-351.9,289.6z M-351.9,293.7c0,0.5-0.4,0.9-0.9,0.9c-0.5,0-0.9-0.4-0.9-0.9c0-0.5,0.4-0.9,0.9-0.9
		C-352.3,292.8-351.9,293.2-351.9,293.7z M-351.9,297.8c0,0.5-0.4,0.9-0.9,0.9c-0.5,0-0.9-0.4-0.9-0.9c0-0.5,0.4-0.9,0.9-0.9
		C-352.3,296.9-351.9,297.3-351.9,297.8z M-320.9,285.5c0-0.5,0.4-0.9,0.9-0.9c0.5,0,0.9,0.4,0.9,0.9c0,0.5-0.4,0.9-0.9,0.9
		C-320.5,286.4-320.9,286-320.9,285.5z M-320.9,289.6c0-0.5,0.4-0.9,0.9-0.9c0.5,0,0.9,0.4,0.9,0.9s-0.4,0.9-0.9,0.9
		C-320.5,290.5-320.9,290.1-320.9,289.6z M-312.7,285.5c0-0.5,0.4-0.9,0.9-0.9s0.9,0.4,0.9,0.9c0,0.5-0.4,0.9-0.9,0.9
		S-312.7,286-312.7,285.5z M-312.7,289.6c0-0.5,0.4-0.9,0.9-0.9s0.9,0.4,0.9,0.9s-0.4,0.9-0.9,0.9S-312.7,290.1-312.7,289.6z
		 M-308.6,289.6c0-0.5,0.4-0.9,0.9-0.9c0.5,0,0.9,0.4,0.9,0.9s-0.4,0.9-0.9,0.9C-308.2,290.5-308.6,290.1-308.6,289.6z
		 M-318.9,287.5c0-0.5,0.4-0.9,0.9-0.9c0.5,0,0.9,0.4,0.9,0.9s-0.4,0.9-0.9,0.9C-318.5,288.4-318.9,288-318.9,287.5z M-314.8,287.5
		c0-0.5,0.4-0.9,0.9-0.9c0.5,0,0.9,0.4,0.9,0.9s-0.4,0.9-0.9,0.9C-314.4,288.4-314.8,288-314.8,287.5z M-318.9,291.6
		c0-0.5,0.4-0.9,0.9-0.9c0.5,0,0.9,0.4,0.9,0.9s-0.4,0.9-0.9,0.9C-318.5,292.5-318.9,292.1-318.9,291.6z M-314.8,291.6
		c0-0.5,0.4-0.9,0.9-0.9c0.5,0,0.9,0.4,0.9,0.9s-0.4,0.9-0.9,0.9C-314.4,292.5-314.8,292.1-314.8,291.6z M-310.7,287.5
		c0-0.5,0.4-0.9,0.9-0.9c0.5,0,0.9,0.4,0.9,0.9s-0.4,0.9-0.9,0.9C-310.3,288.4-310.7,288-310.7,287.5z M-310.7,291.6
		c0-0.5,0.4-0.9,0.9-0.9c0.5,0,0.9,0.4,0.9,0.9s-0.4,0.9-0.9,0.9C-310.3,292.5-310.7,292.1-310.7,291.6z M-320.9,293.7
		c0-0.5,0.4-0.9,0.9-0.9c0.5,0,0.9,0.4,0.9,0.9c0,0.5-0.4,0.9-0.9,0.9C-320.5,294.6-320.9,294.2-320.9,293.7z M-312.7,293.7
		c0-0.5,0.4-0.9,0.9-0.9s0.9,0.4,0.9,0.9c0,0.5-0.4,0.9-0.9,0.9S-312.7,294.2-312.7,293.7z M-308.6,293.7c0-0.5,0.4-0.9,0.9-0.9
		c0.5,0,0.9,0.4,0.9,0.9c0,0.5-0.4,0.9-0.9,0.9C-308.2,294.6-308.6,294.2-308.6,293.7z M-318.9,295.7c0-0.5,0.4-0.9,0.9-0.9
		c0.5,0,0.9,0.4,0.9,0.9c0,0.5-0.4,0.9-0.9,0.9C-318.5,296.6-318.9,296.2-318.9,295.7z M-314.8,295.7c0-0.5,0.4-0.9,0.9-0.9
		c0.5,0,0.9,0.4,0.9,0.9c0,0.5-0.4,0.9-0.9,0.9C-314.4,296.6-314.8,296.2-314.8,295.7z M-310.7,295.7c0-0.5,0.4-0.9,0.9-0.9
		c0.5,0,0.9,0.4,0.9,0.9c0,0.5-0.4,0.9-0.9,0.9C-310.3,296.6-310.7,296.2-310.7,295.7z M-306.6,295.7c0-0.5,0.4-0.9,0.9-0.9
		c0.5,0,0.9,0.4,0.9,0.9c0,0.5-0.4,0.9-0.9,0.9S-306.6,296.2-306.6,295.7z M-313,320.3c0,0.5-0.4,0.9-0.9,0.9
		c-0.5,0-0.9-0.4-0.9-0.9c0-0.5,0.4-0.9,0.9-0.9C-313.4,319.4-313,319.8-313,320.3z M-308.9,320.3c0,0.5-0.4,0.9-0.9,0.9
		c-0.5,0-0.9-0.4-0.9-0.9c0-0.5,0.4-0.9,0.9-0.9C-309.3,319.4-308.9,319.8-308.9,320.3z M-304.8,320.3c0,0.5-0.4,0.9-0.9,0.9
		s-0.9-0.4-0.9-0.9c0-0.5,0.4-0.9,0.9-0.9C-305.2,319.4-304.8,319.8-304.8,320.3z M-319.2,322.3c0,0.5-0.4,0.9-0.9,0.9
		c-0.5,0-0.9-0.4-0.9-0.9c0-0.5,0.4-0.9,0.9-0.9C-319.6,321.5-319.2,321.8-319.2,322.3z M-311,322.3c0,0.5-0.4,0.9-0.9,0.9
		s-0.9-0.4-0.9-0.9c0-0.5,0.4-0.9,0.9-0.9S-311,321.8-311,322.3z M-306.9,322.3c0,0.5-0.4,0.9-0.9,0.9c-0.5,0-0.9-0.4-0.9-0.9
		c0-0.5,0.4-0.9,0.9-0.9C-307.3,321.5-306.9,321.8-306.9,322.3z M-319.2,326.4c0,0.5-0.4,0.9-0.9,0.9c-0.5,0-0.9-0.4-0.9-0.9
		c0-0.5,0.4-0.9,0.9-0.9C-319.6,325.6-319.2,326-319.2,326.4z M-311,326.4c0,0.5-0.4,0.9-0.9,0.9s-0.9-0.4-0.9-0.9
		c0-0.5,0.4-0.9,0.9-0.9S-311,326-311,326.4z M-306.9,326.4c0,0.5-0.4,0.9-0.9,0.9c-0.5,0-0.9-0.4-0.9-0.9c0-0.5,0.4-0.9,0.9-0.9
		C-307.3,325.6-306.9,326-306.9,326.4z M-313,324.4c0,0.5-0.4,0.9-0.9,0.9c-0.5,0-0.9-0.4-0.9-0.9c0-0.5,0.4-0.9,0.9-0.9
		C-313.4,323.5-313,323.9-313,324.4z M-313,328.5c0,0.5-0.4,0.9-0.9,0.9c-0.5,0-0.9-0.4-0.9-0.9c0-0.5,0.4-0.9,0.9-0.9
		C-313.4,327.6-313,328-313,328.5z M-308.9,324.4c0,0.5-0.4,0.9-0.9,0.9c-0.5,0-0.9-0.4-0.9-0.9c0-0.5,0.4-0.9,0.9-0.9
		C-309.3,323.5-308.9,323.9-308.9,324.4z M-308.9,328.5c0,0.5-0.4,0.9-0.9,0.9c-0.5,0-0.9-0.4-0.9-0.9c0-0.5,0.4-0.9,0.9-0.9
		C-309.3,327.6-308.9,328-308.9,328.5z M-304.8,324.4c0,0.5-0.4,0.9-0.9,0.9s-0.9-0.4-0.9-0.9c0-0.5,0.4-0.9,0.9-0.9
		C-305.2,323.5-304.8,323.9-304.8,324.4z M-304.8,328.5c0,0.5-0.4,0.9-0.9,0.9s-0.9-0.4-0.9-0.9c0-0.5,0.4-0.9,0.9-0.9
		C-305.2,327.6-304.8,328-304.8,328.5z M-319.2,330.5c0,0.5-0.4,0.9-0.9,0.9c-0.5,0-0.9-0.4-0.9-0.9c0-0.5,0.4-0.9,0.9-0.9
		C-319.6,329.7-319.2,330-319.2,330.5z M-311,330.5c0,0.5-0.4,0.9-0.9,0.9s-0.9-0.4-0.9-0.9c0-0.5,0.4-0.9,0.9-0.9
		S-311,330-311,330.5z M-306.9,330.5c0,0.5-0.4,0.9-0.9,0.9c-0.5,0-0.9-0.4-0.9-0.9c0-0.5,0.4-0.9,0.9-0.9
		C-307.3,329.7-306.9,330-306.9,330.5z M-316.8,285.5c0-0.5,0.4-0.9,0.9-0.9c0.5,0,0.9,0.4,0.9,0.9c0,0.5-0.4,0.9-0.9,0.9
		C-316.4,286.4-316.8,286-316.8,285.5z M-316.8,289.6c0-0.5,0.4-0.9,0.9-0.9c0.5,0,0.9,0.4,0.9,0.9s-0.4,0.9-0.9,0.9
		C-316.4,290.5-316.8,290.1-316.8,289.6z M-316.8,293.7c0-0.5,0.4-0.9,0.9-0.9c0.5,0,0.9,0.4,0.9,0.9c0,0.5-0.4,0.9-0.9,0.9
		C-316.4,294.5-316.8,294.2-316.8,293.7z M-302.8,322.3c0,0.5-0.4,0.9-0.9,0.9s-0.9-0.4-0.9-0.9c0-0.5,0.4-0.9,0.9-0.9
		S-302.8,321.8-302.8,322.3z M-302.8,326.4c0,0.5-0.4,0.9-0.9,0.9s-0.9-0.4-0.9-0.9c0-0.5,0.4-0.9,0.9-0.9S-302.8,326-302.8,326.4z
		 M-302.8,330.5c0,0.5-0.4,0.9-0.9,0.9s-0.9-0.4-0.9-0.9c0-0.5,0.4-0.9,0.9-0.9S-302.8,330-302.8,330.5z"/>
</g>
</svg>
