<?xml version="1.0" encoding="utf-8"?>
<!-- Generator: Adobe Illustrator 19.0.0, SVG Export Plug-In . SVG Version: 6.00 Build 0)  -->
<svg version="1.1" id="Layer_1" xmlns="http://www.w3.org/2000/svg" xmlns:xlink="http://www.w3.org/1999/xlink" x="0px" y="0px"
	 viewBox="-370 235.3 100 100" style="enable-background:new -370 235.3 100 100;" xml:space="preserve">
<g>
	<path d="M-326.5,312.7c-0.4,0.6-1.3,0.7-1.8,0c-0.4-0.7,0.1-1.6,0.9-1.6C-326.6,311.2-326.2,312-326.5,312.7z M-327.5,306.2
		c-0.8,0-1.3,0.9-0.9,1.6c0.5,0.7,1.4,0.6,1.8,0C-326.2,307.1-326.6,306.2-327.5,306.2z M-327.5,301.3c-0.8,0-1.3,0.9-0.9,1.6
		c0.5,0.7,1.4,0.6,1.8,0C-326.2,302.2-326.6,301.3-327.5,301.3z M-327.5,296.4c-0.8,0-1.3,0.9-0.9,1.6c0.5,0.7,1.4,0.6,1.8,0
		C-326.2,297.3-326.6,296.4-327.5,296.4z M-327.5,291.5c-0.8,0-1.3,0.9-0.9,1.6c0.5,0.7,1.4,0.6,1.8,0
		C-326.2,292.4-326.6,291.5-327.5,291.5z M-325,308.7c-0.8,0-1.3,0.9-0.9,1.6c0.5,0.7,1.4,0.6,1.8,0
		C-323.7,309.6-324.2,308.7-325,308.7z M-325,303.8c-0.8,0-1.3,0.9-0.9,1.6c0.5,0.7,1.4,0.6,1.8,0
		C-323.7,304.7-324.2,303.8-325,303.8z M-325,298.9c-0.8,0-1.3,0.9-0.9,1.6c0.5,0.7,1.4,0.6,1.8,0
		C-323.7,299.8-324.2,298.9-325,298.9z M-325,294c-0.8,0-1.3,0.9-0.9,1.6c0.5,0.7,1.4,0.6,1.8,0C-323.7,294.9-324.2,294-325,294z
		 M-325,289.1c-0.8,0-1.3,0.9-0.9,1.6c0.5,0.7,1.4,0.6,1.8,0C-323.7,290-324.2,289.1-325,289.1z M-322.5,311.2
		c-0.8,0-1.3,0.9-0.9,1.6c0.5,0.7,1.4,0.6,1.8,0C-321.3,312-321.7,311.2-322.5,311.2z M-322.5,306.2c-0.8,0-1.3,0.9-0.9,1.6
		c0.5,0.7,1.4,0.6,1.8,0C-321.3,307.1-321.7,306.2-322.5,306.2z M-322.5,301.3c-0.8,0-1.3,0.9-0.9,1.6c0.5,0.7,1.4,0.6,1.8,0
		C-321.3,302.2-321.7,301.3-322.5,301.3z M-322.5,296.4c-0.8,0-1.3,0.9-0.9,1.6c0.5,0.7,1.4,0.6,1.8,0
		C-321.3,297.3-321.7,296.4-322.5,296.4z M-322.5,291.5c-0.8,0-1.3,0.9-0.9,1.6c0.5,0.7,1.4,0.6,1.8,0
		C-321.3,292.4-321.7,291.5-322.5,291.5z M-320.1,308.7c-0.8,0-1.3,0.9-0.9,1.6c0.5,0.7,1.4,0.6,1.8,0
		C-318.8,309.6-319.3,308.7-320.1,308.7z M-320.1,303.8c-0.8,0-1.3,0.9-0.9,1.6c0.5,0.7,1.4,0.6,1.8,0
		C-318.8,304.7-319.3,303.8-320.1,303.8z M-320.1,298.9c-0.8,0-1.3,0.9-0.9,1.6c0.5,0.7,1.4,0.6,1.8,0
		C-318.8,299.8-319.3,298.9-320.1,298.9z M-320.1,294c-0.8,0-1.3,0.9-0.9,1.6c0.5,0.7,1.4,0.6,1.8,0
		C-318.8,294.9-319.3,294-320.1,294z M-320.1,289.1c-0.8,0-1.3,0.9-0.9,1.6c0.5,0.7,1.4,0.6,1.8,0
		C-318.8,290-319.3,289.1-320.1,289.1z M-317.6,311.2c-0.8,0-1.3,0.9-0.9,1.6c0.5,0.7,1.4,0.6,1.8,0
		C-316.3,312-316.8,311.2-317.6,311.2z M-317.6,306.2c-0.8,0-1.3,0.9-0.9,1.6c0.5,0.7,1.4,0.6,1.8,0
		C-316.3,307.1-316.8,306.2-317.6,306.2z M-317.6,301.3c-0.8,0-1.3,0.9-0.9,1.6c0.5,0.7,1.4,0.6,1.8,0
		C-316.3,302.2-316.8,301.3-317.6,301.3z M-317.6,296.4c-0.8,0-1.3,0.9-0.9,1.6c0.5,0.7,1.4,0.6,1.8,0
		C-316.3,297.3-316.8,296.4-317.6,296.4z M-317.6,291.5c-0.8,0-1.3,0.9-0.9,1.6c0.5,0.7,1.4,0.6,1.8,0
		C-316.3,292.4-316.8,291.5-317.6,291.5z M-298.9,243c-0.4,0.7,0.1,1.6,0.9,1.6c0.8,0,1.3-0.9,0.9-1.6
		C-297.6,242.2-298.5,242.3-298.9,243z M-303.8,243c-0.4,0.7,0.1,1.6,0.9,1.6c0.8,0,1.3-0.9,0.9-1.6
		C-302.5,242.2-303.4,242.3-303.8,243z M-306.3,245.4c-0.4,0.7,0.1,1.6,0.9,1.6c0.8,0,1.3-0.9,0.9-1.6
		C-304.9,244.7-305.9,244.8-306.3,245.4z M-308.7,243c-0.4,0.7,0.1,1.6,0.9,1.6c0.8,0,1.3-0.9,0.9-1.6
		C-307.4,242.2-308.3,242.3-308.7,243z M-311.2,245.4c-0.4,0.7,0.1,1.6,0.9,1.6c0.8,0,1.3-0.9,0.9-1.6
		C-309.9,244.7-310.8,244.8-311.2,245.4z M-313.6,243c-0.4,0.7,0.1,1.6,0.9,1.6c0.8,0,1.3-0.9,0.9-1.6
		C-312.3,242.2-313.2,242.3-313.6,243z M-313.6,247.9c-0.4,0.7,0.1,1.6,0.9,1.6c0.8,0,1.3-0.9,0.9-1.6
		C-312.3,247.1-313.2,247.2-313.6,247.9z M-316.1,245.4c-0.4,0.7,0.1,1.6,0.9,1.6c0.8,0,1.3-0.9,0.9-1.6
		C-314.8,244.7-315.7,244.8-316.1,245.4z M-318.5,243c-0.4,0.7,0.1,1.6,0.9,1.6c0.8,0,1.3-0.9,0.9-1.6
		C-317.2,242.2-318.1,242.3-318.5,243z M-318.5,247.9c-0.4,0.7,0.1,1.6,0.9,1.6c0.8,0,1.3-0.9,0.9-1.6
		C-317.2,247.1-318.1,247.2-318.5,247.9z M-318.5,252.8c-0.4,0.7,0.1,1.6,0.9,1.6c0.8,0,1.3-0.9,0.9-1.6
		C-317.2,252.1-318.1,252.2-318.5,252.8z M-318.5,257.7c-0.4,0.7,0.1,1.6,0.9,1.6c0.8,0,1.3-0.9,0.9-1.6
		C-317.2,257-318.1,257.1-318.5,257.7z M-318.5,262.6c-0.4,0.7,0.1,1.6,0.9,1.6c0.8,0,1.3-0.9,0.9-1.6
		C-317.2,261.9-318.1,262-318.5,262.6z M-318.5,267.5c-0.4,0.7,0.1,1.6,0.9,1.6c0.8,0,1.3-0.9,0.9-1.6
		C-317.2,266.8-318.1,266.9-318.5,267.5z M-318.5,272.4c-0.4,0.7,0.1,1.6,0.9,1.6c0.8,0,1.3-0.9,0.9-1.6
		C-317.2,271.7-318.1,271.8-318.5,272.4z M-318.5,277.3c-0.4,0.7,0.1,1.6,0.9,1.6c0.8,0,1.3-0.9,0.9-1.6
		C-317.2,276.6-318.1,276.7-318.5,277.3z M-318.5,282.3c-0.4,0.7,0.1,1.6,0.9,1.6c0.8,0,1.3-0.9,0.9-1.6
		C-317.2,281.5-318.1,281.6-318.5,282.3z M-318.5,287.2c-0.4,0.7,0.1,1.6,0.9,1.6c0.8,0,1.3-0.9,0.9-1.6
		C-317.2,286.4-318.1,286.5-318.5,287.2z M-320.1,247c0.8,0,1.3-0.9,0.9-1.6c-0.5-0.7-1.4-0.6-1.8,0
		C-321.4,246.1-320.9,247-320.1,247z M-320.1,251.9c0.8,0,1.3-0.9,0.9-1.6c-0.5-0.7-1.4-0.6-1.8,0
		C-321.4,251-320.9,251.9-320.1,251.9z M-320.1,256.8c0.8,0,1.3-0.9,0.9-1.6c-0.5-0.7-1.4-0.6-1.8,0
		C-321.4,255.9-320.9,256.8-320.1,256.8z M-320.1,261.7c0.8,0,1.3-0.9,0.9-1.6c-0.5-0.7-1.4-0.6-1.8,0
		C-321.4,260.8-320.9,261.7-320.1,261.7z M-320.1,266.6c0.8,0,1.3-0.9,0.9-1.6c-0.5-0.7-1.4-0.6-1.8,0
		C-321.4,265.7-320.9,266.6-320.1,266.6z M-319.2,269.9c-0.5-0.7-1.4-0.6-1.8,0c-0.4,0.7,0.1,1.6,0.9,1.6
		C-319.3,271.5-318.8,270.7-319.2,269.9z M-320.1,281.3c0.8,0,1.3-0.9,0.9-1.6c-0.5-0.7-1.4-0.6-1.8,0
		C-321.4,280.5-320.9,281.3-320.1,281.3z M-320.1,286.3c0.8,0,1.3-0.9,0.9-1.6c-0.5-0.7-1.4-0.6-1.8,0
		C-321.4,285.4-320.9,286.3-320.1,286.3z M-323.4,243c-0.4,0.7,0.1,1.6,0.9,1.6c0.8,0,1.3-0.9,0.9-1.6
		C-322.1,242.2-323.1,242.3-323.4,243z M-323.4,247.9c-0.4,0.7,0.1,1.6,0.9,1.6c0.8,0,1.3-0.9,0.9-1.6
		C-322.1,247.1-323.1,247.2-323.4,247.9z M-323.4,252.8c-0.4,0.7,0.1,1.6,0.9,1.6c0.8,0,1.3-0.9,0.9-1.6
		C-322.1,252.1-323.1,252.2-323.4,252.8z M-323.4,257.7c-0.4,0.7,0.1,1.6,0.9,1.6c0.8,0,1.3-0.9,0.9-1.6
		C-322.1,257-323.1,257.1-323.4,257.7z M-323.4,262.6c-0.4,0.7,0.1,1.6,0.9,1.6c0.8,0,1.3-0.9,0.9-1.6
		C-322.1,261.9-323.1,262-323.4,262.6z M-323.4,267.5c-0.4,0.7,0.1,1.6,0.9,1.6c0.8,0,1.3-0.9,0.9-1.6
		C-322.1,266.8-323.1,266.9-323.4,267.5z M-323.4,282.3c-0.4,0.7,0.1,1.6,0.9,1.6c0.8,0,1.3-0.9,0.9-1.6
		C-322.1,281.5-323.1,281.6-323.4,282.3z M-323.4,287.2c-0.4,0.7,0.1,1.6,0.9,1.6c0.8,0,1.3-0.9,0.9-1.6
		C-322.1,286.4-323.1,286.5-323.4,287.2z M-325.9,245.4c-0.4,0.7,0.1,1.6,0.9,1.6c0.8,0,1.3-0.9,0.9-1.6
		C-324.6,244.7-325.5,244.8-325.9,245.4z M-325.9,250.3c-0.4,0.7,0.1,1.6,0.9,1.6c0.8,0,1.3-0.9,0.9-1.6
		C-324.6,249.6-325.5,249.7-325.9,250.3z M-325.9,255.2c-0.4,0.7,0.1,1.6,0.9,1.6c0.8,0,1.3-0.9,0.9-1.6
		C-324.6,254.5-325.5,254.6-325.9,255.2z M-325.9,260.1c-0.4,0.7,0.1,1.6,0.9,1.6c0.8,0,1.3-0.9,0.9-1.6
		C-324.6,259.4-325.5,259.5-325.9,260.1z M-325.9,265.1c-0.4,0.7,0.1,1.6,0.9,1.6c0.8,0,1.3-0.9,0.9-1.6
		C-324.6,264.3-325.5,264.4-325.9,265.1z M-325.9,284.7c-0.4,0.7,0.1,1.6,0.9,1.6c0.8,0,1.3-0.9,0.9-1.6
		C-324.6,283.9-325.5,284.1-325.9,284.7z M-328.4,243c-0.4,0.7,0.1,1.6,0.9,1.6c0.8,0,1.3-0.9,0.9-1.6
		C-327.1,242.2-328,242.3-328.4,243z M-328.4,247.9c-0.4,0.7,0.1,1.6,0.9,1.6c0.8,0,1.3-0.9,0.9-1.6
		C-327.1,247.1-328,247.2-328.4,247.9z M-328.4,252.8c-0.4,0.7,0.1,1.6,0.9,1.6c0.8,0,1.3-0.9,0.9-1.6
		C-327.1,252.1-328,252.2-328.4,252.8z M-328.4,257.7c-0.4,0.7,0.1,1.6,0.9,1.6c0.8,0,1.3-0.9,0.9-1.6
		C-327.1,257-328,257.1-328.4,257.7z M-328.4,262.6c-0.4,0.7,0.1,1.6,0.9,1.6c0.8,0,1.3-0.9,0.9-1.6
		C-327.1,261.9-328,262-328.4,262.6z M-328.4,287.2c-0.4,0.7,0.1,1.6,0.9,1.6c0.8,0,1.3-0.9,0.9-1.6
		C-327.1,286.4-328,286.5-328.4,287.2z M-270,235.3v85l-45,15v-15h-20v-30l-10,10l-5-5l16.2-16.2H-370v-7.5h36.2l-16.2-16.2l5-5
		l10,10v-25H-270z M-285,240.3h-4.9c0.3,0.3,0.4,0.8,0.2,1.3c-0.4,0.6-1.3,0.7-1.8,0c-0.3-0.5-0.2-1,0.1-1.3h-3.4
		c0.3,0.3,0.4,0.8,0.2,1.3c-0.4,0.6-1.3,0.7-1.8,0c-0.3-0.5-0.2-1,0.1-1.3h-3.4c0.3,0.3,0.4,0.8,0.2,1.3c-0.4,0.6-1.3,0.7-1.8,0
		c-0.3-0.5-0.2-1,0.1-1.3h-3.5c0.3,0.3,0.4,0.8,0.2,1.3c-0.4,0.6-1.3,0.7-1.8,0c-0.3-0.5-0.2-1,0.1-1.3h-3.4
		c0.3,0.3,0.4,0.8,0.2,1.3c-0.4,0.6-1.3,0.7-1.8,0c-0.3-0.5-0.2-1,0.1-1.3h-3.4c0.3,0.3,0.4,0.8,0.2,1.3c-0.4,0.6-1.3,0.7-1.8,0
		c-0.3-0.5-0.2-1,0.1-1.3h-3.4c0.3,0.3,0.4,0.8,0.2,1.3c-0.4,0.6-1.3,0.7-1.8,0c-0.3-0.5-0.2-1,0.1-1.3h-3.4
		c0.3,0.3,0.4,0.8,0.2,1.3c-0.4,0.6-1.3,0.7-1.8,0c-0.3-0.5-0.2-1,0.1-1.3h-3.4c0.3,0.3,0.4,0.8,0.2,1.3c-0.2,0.4-0.6,0.6-1,0.5v2.8
		c0.6-0.1,1.1,0.3,1.1,1c0,0.7-0.6,1.1-1.1,1v2.8c0.5-0.1,1.1,0.3,1.1,1c0,0.7-0.6,1.2-1.1,1.1v2.8c0.5-0.1,1.1,0.3,1.1,1
		c0,0.7-0.6,1.1-1.1,1.1v2.8c0.5-0.1,1.1,0.3,1.1,1c0,0.7-0.6,1.1-1.1,1.1v2.8c0.4,0,0.7,0.1,1,0.5c0.3,0.4,0.2,0.9,0,1.2l1,1
		c0.4-0.3,1.1-0.3,1.5,0.3c0.2,0.4,0.2,0.9,0,1.2l1,1c0.4-0.3,1.1-0.3,1.5,0.3c0.3,0.4,0.2,0.9,0,1.2l1,1c0.4-0.3,1.1-0.3,1.5,0.3
		c0.2,0.4,0.2,0.9,0,1.2l1,1c0.4-0.3,1.1-0.3,1.5,0.3c0.4,0.7-0.1,1.6-0.9,1.6c-0.3,0-0.6-0.1-0.7-0.3l-1,1c0.3,0.3,0.5,0.8,0.2,1.3
		c-0.4,0.6-1.2,0.6-1.6,0.2l-1,1c0.3,0.3,0.4,0.8,0.1,1.3c-0.4,0.6-1.2,0.6-1.6,0.1l-1,1c0.3,0.3,0.4,0.9,0.2,1.3
		c-0.4,0.6-1.2,0.7-1.6,0.2l-1,1c0.4,0.4,0.4,1.1,0,1.5c-0.2,0.2-0.5,0.3-0.8,0.3v2.8c0.6-0.1,1.2,0.4,1.1,1.1c0,0.6-0.5,1-1.1,1
		v2.8c0.6-0.1,1.2,0.4,1.1,1.1c0,0.6-0.5,1.1-1.1,1v2.8c0.6-0.1,1.2,0.5,1.1,1.1c0,0.6-0.6,1-1.1,1v2.8c0.6-0.1,1.2,0.4,1.1,1.1
		c0,0.6-0.5,1-1.1,1v2.8c0.5,0,1.1,0.4,1.1,1c0,0.6-0.5,1.2-1.1,1.1v2.8c0.4,0,0.7,0.1,1,0.5c0.2,0.4,0.2,0.9,0,1.2h3.2
		c-0.2-0.3-0.3-0.8-0.1-1.1c0.4-0.6,1.3-0.7,1.8,0c0.2,0.4,0.2,0.9,0,1.2h3.2c-0.2-0.3-0.3-0.8-0.1-1.1c0.4-0.6,1.3-0.7,1.8,0
		c0.2,0.4,0.2,0.9,0,1.2h3.2c-0.2-0.3-0.3-0.8-0.1-1.1c0.2-0.4,0.7-0.6,1.1-0.5v-2.9c-0.6,0.1-1.2-0.3-1.2-1c0-0.7,0.6-1.2,1.2-1.1
		v-2.9c-0.6,0.1-1.2-0.3-1.2-1c0-0.7,0.6-1.1,1.2-1V301c-0.6,0.1-1.2-0.3-1.2-1.1c0.1-0.7,0.6-1.1,1.2-1v-2.9
		c-0.6,0.1-1.2-0.3-1.2-1c0-0.7,0.6-1.1,1.2-1v-2.9c-0.6,0.1-1.2-0.3-1.2-1c0-0.7,0.6-1.2,1.2-1.1v-2.8c-0.6,0.1-1.3-0.4-1.2-1.1
		c0-0.6,0.6-1,1.2-0.9v-2.9c-0.7,0.1-1.3-0.5-1.2-1.2c0.1-0.6,0.6-1,1.2-0.9v-2.8c-0.7,0.1-1.3-0.5-1.2-1.2c0.1-0.6,0.6-1,1.2-0.9
		v-2.8c-0.6,0.1-1.3-0.4-1.2-1.1c0.1-0.6,0.6-1,1.2-0.9v-2.8c-0.6,0.1-1.2-0.4-1.2-1c0-0.6,0.5-1.2,1.2-1.1v-2.9
		c-0.6,0.1-1.1-0.3-1.2-0.9c-0.1-0.7,0.5-1.2,1.2-1.1v-2.9c-0.6,0.1-1.2-0.4-1.2-1.1c0-0.7,0.6-1.1,1.2-1v-2.8c-0.1,0-0.1,0-0.2,0
		c-0.8,0-1.3-0.9-0.9-1.6c0.3-0.6,1.1-0.7,1.6-0.2l5.6-1.9c0.1-0.3,0.3-0.7,0.7-0.8c0.4-0.1,0.8,0,1.1,0.2l5.6-1.9
		c0.1-0.3,0.3-0.6,0.6-0.8c0.4-0.2,0.9-0.1,1.2,0.2l5.6-1.9c0.1-0.3,0.3-0.6,0.6-0.8c0.4-0.2,0.8-0.1,1.1,0.2L-285,240.3z
		 M-275,242.2l-35,11.7v74.5l35-11.7V242.2z"/>
</g>
</svg>
